<mxfile host="Electron" agent="Mozilla/5.0 (Windows NT 10.0; Win64; x64) AppleWebKit/537.36 (KHTML, like Gecko) draw.io/28.0.6 Chrome/138.0.7204.100 Electron/37.2.3 Safari/537.36" version="28.0.6" pages="2">
  <diagram name="Diagrama Sálario Líquido" id="_n7Id7CqesQohd70lSHS">
    <mxGraphModel dx="2036" dy="737" grid="1" gridSize="10" guides="1" tooltips="1" connect="1" arrows="1" fold="1" page="1" pageScale="1" pageWidth="827" pageHeight="1169" math="0" shadow="0">
      <root>
        <mxCell id="0" />
        <mxCell id="1" parent="0" />
        <mxCell id="gv5yW4gFrfsYINOP_nPH-13" style="edgeStyle=orthogonalEdgeStyle;rounded=0;orthogonalLoop=1;jettySize=auto;html=1;exitX=0.5;exitY=1;exitDx=0;exitDy=0;entryX=0.5;entryY=0;entryDx=0;entryDy=0;" edge="1" parent="1" source="gv5yW4gFrfsYINOP_nPH-1" target="gv5yW4gFrfsYINOP_nPH-3">
          <mxGeometry relative="1" as="geometry" />
        </mxCell>
        <mxCell id="gv5yW4gFrfsYINOP_nPH-1" value="" style="ellipse;whiteSpace=wrap;html=1;aspect=fixed;fillColor=#60a917;fontColor=#ffffff;strokeColor=#2D7600;" vertex="1" parent="1">
          <mxGeometry x="195" y="20" width="50" height="50" as="geometry" />
        </mxCell>
        <mxCell id="gv5yW4gFrfsYINOP_nPH-6" style="edgeStyle=orthogonalEdgeStyle;rounded=0;orthogonalLoop=1;jettySize=auto;html=1;exitX=0.5;exitY=1;exitDx=0;exitDy=0;entryX=0.5;entryY=0;entryDx=0;entryDy=0;" edge="1" parent="1" source="gv5yW4gFrfsYINOP_nPH-3" target="gv5yW4gFrfsYINOP_nPH-5">
          <mxGeometry relative="1" as="geometry" />
        </mxCell>
        <mxCell id="gv5yW4gFrfsYINOP_nPH-3" value="sálario bruto (sb)" style="rounded=0;whiteSpace=wrap;html=1;" vertex="1" parent="1">
          <mxGeometry x="160" y="85" width="120" height="60" as="geometry" />
        </mxCell>
        <mxCell id="gv5yW4gFrfsYINOP_nPH-7" style="edgeStyle=orthogonalEdgeStyle;rounded=0;orthogonalLoop=1;jettySize=auto;html=1;exitX=0.5;exitY=1;exitDx=0;exitDy=0;" edge="1" parent="1" source="gv5yW4gFrfsYINOP_nPH-5" target="gv5yW4gFrfsYINOP_nPH-8">
          <mxGeometry relative="1" as="geometry">
            <mxPoint x="220" y="260" as="targetPoint" />
          </mxGeometry>
        </mxCell>
        <mxCell id="gv5yW4gFrfsYINOP_nPH-5" value="recebe benefício?" style="rounded=0;whiteSpace=wrap;html=1;" vertex="1" parent="1">
          <mxGeometry x="160" y="170" width="120" height="60" as="geometry" />
        </mxCell>
        <mxCell id="gv5yW4gFrfsYINOP_nPH-9" style="edgeStyle=orthogonalEdgeStyle;rounded=0;orthogonalLoop=1;jettySize=auto;html=1;exitX=1;exitY=0.5;exitDx=0;exitDy=0;" edge="1" parent="1" source="gv5yW4gFrfsYINOP_nPH-8" target="gv5yW4gFrfsYINOP_nPH-14">
          <mxGeometry relative="1" as="geometry">
            <mxPoint x="350" y="290" as="targetPoint" />
          </mxGeometry>
        </mxCell>
        <mxCell id="gv5yW4gFrfsYINOP_nPH-11" style="edgeStyle=orthogonalEdgeStyle;rounded=0;orthogonalLoop=1;jettySize=auto;html=1;exitX=0;exitY=0.5;exitDx=0;exitDy=0;" edge="1" parent="1" source="gv5yW4gFrfsYINOP_nPH-8" target="gv5yW4gFrfsYINOP_nPH-18">
          <mxGeometry relative="1" as="geometry">
            <mxPoint x="80" y="370" as="targetPoint" />
          </mxGeometry>
        </mxCell>
        <mxCell id="gv5yW4gFrfsYINOP_nPH-8" value="" style="rhombus;whiteSpace=wrap;html=1;" vertex="1" parent="1">
          <mxGeometry x="180" y="250" width="80" height="80" as="geometry" />
        </mxCell>
        <mxCell id="gv5yW4gFrfsYINOP_nPH-10" value="SIM" style="text;html=1;align=center;verticalAlign=middle;resizable=0;points=[];autosize=1;strokeColor=none;fillColor=none;" vertex="1" parent="1">
          <mxGeometry x="280" y="258" width="40" height="30" as="geometry" />
        </mxCell>
        <mxCell id="gv5yW4gFrfsYINOP_nPH-12" value="NÃO" style="text;html=1;align=center;verticalAlign=middle;resizable=0;points=[];autosize=1;strokeColor=none;fillColor=none;" vertex="1" parent="1">
          <mxGeometry x="110" y="258" width="50" height="30" as="geometry" />
        </mxCell>
        <mxCell id="gv5yW4gFrfsYINOP_nPH-15" style="edgeStyle=orthogonalEdgeStyle;rounded=0;orthogonalLoop=1;jettySize=auto;html=1;exitX=1;exitY=0.5;exitDx=0;exitDy=0;" edge="1" parent="1" source="gv5yW4gFrfsYINOP_nPH-14" target="gv5yW4gFrfsYINOP_nPH-16">
          <mxGeometry relative="1" as="geometry">
            <mxPoint x="510" y="290" as="targetPoint" />
          </mxGeometry>
        </mxCell>
        <mxCell id="gv5yW4gFrfsYINOP_nPH-14" value="nome do benefício?" style="rounded=0;whiteSpace=wrap;html=1;" vertex="1" parent="1">
          <mxGeometry x="340" y="260" width="120" height="60" as="geometry" />
        </mxCell>
        <mxCell id="gv5yW4gFrfsYINOP_nPH-23" style="edgeStyle=orthogonalEdgeStyle;rounded=0;orthogonalLoop=1;jettySize=auto;html=1;exitX=0.5;exitY=1;exitDx=0;exitDy=0;" edge="1" parent="1" source="gv5yW4gFrfsYINOP_nPH-16" target="gv5yW4gFrfsYINOP_nPH-24">
          <mxGeometry relative="1" as="geometry">
            <mxPoint x="550" y="360" as="targetPoint" />
          </mxGeometry>
        </mxCell>
        <mxCell id="gv5yW4gFrfsYINOP_nPH-16" value="valor benefício?" style="rounded=0;whiteSpace=wrap;html=1;" vertex="1" parent="1">
          <mxGeometry x="490" y="260" width="120" height="60" as="geometry" />
        </mxCell>
        <mxCell id="gv5yW4gFrfsYINOP_nPH-19" style="edgeStyle=orthogonalEdgeStyle;rounded=0;orthogonalLoop=1;jettySize=auto;html=1;exitX=0.5;exitY=1;exitDx=0;exitDy=0;" edge="1" parent="1" source="gv5yW4gFrfsYINOP_nPH-18" target="gv5yW4gFrfsYINOP_nPH-20">
          <mxGeometry relative="1" as="geometry">
            <mxPoint x="100" y="460" as="targetPoint" />
          </mxGeometry>
        </mxCell>
        <mxCell id="gv5yW4gFrfsYINOP_nPH-18" value="desconto INSS =&amp;nbsp; 0.10 * sb" style="rounded=0;whiteSpace=wrap;html=1;" vertex="1" parent="1">
          <mxGeometry x="20" y="360" width="160" height="60" as="geometry" />
        </mxCell>
        <mxCell id="gv5yW4gFrfsYINOP_nPH-21" style="edgeStyle=orthogonalEdgeStyle;rounded=0;orthogonalLoop=1;jettySize=auto;html=1;exitX=0.5;exitY=1;exitDx=0;exitDy=0;" edge="1" parent="1" source="gv5yW4gFrfsYINOP_nPH-20" target="gv5yW4gFrfsYINOP_nPH-22">
          <mxGeometry relative="1" as="geometry">
            <mxPoint x="100" y="540" as="targetPoint" />
          </mxGeometry>
        </mxCell>
        <mxCell id="gv5yW4gFrfsYINOP_nPH-20" value="desconto IR .0.20 * sb" style="rounded=0;whiteSpace=wrap;html=1;" vertex="1" parent="1">
          <mxGeometry x="20" y="440" width="160" height="60" as="geometry" />
        </mxCell>
        <mxCell id="gv5yW4gFrfsYINOP_nPH-31" style="edgeStyle=orthogonalEdgeStyle;rounded=0;orthogonalLoop=1;jettySize=auto;html=1;exitX=0.5;exitY=1;exitDx=0;exitDy=0;" edge="1" parent="1" source="gv5yW4gFrfsYINOP_nPH-22" target="gv5yW4gFrfsYINOP_nPH-32">
          <mxGeometry relative="1" as="geometry">
            <mxPoint x="100" y="630" as="targetPoint" />
          </mxGeometry>
        </mxCell>
        <mxCell id="gv5yW4gFrfsYINOP_nPH-22" value="sálario líquido = sb - INSS - IR" style="rounded=0;whiteSpace=wrap;html=1;" vertex="1" parent="1">
          <mxGeometry x="-5" y="524.5" width="210" height="60" as="geometry" />
        </mxCell>
        <mxCell id="gv5yW4gFrfsYINOP_nPH-26" style="edgeStyle=orthogonalEdgeStyle;rounded=0;orthogonalLoop=1;jettySize=auto;html=1;exitX=0.5;exitY=1;exitDx=0;exitDy=0;" edge="1" parent="1" source="gv5yW4gFrfsYINOP_nPH-24" target="gv5yW4gFrfsYINOP_nPH-25">
          <mxGeometry relative="1" as="geometry" />
        </mxCell>
        <mxCell id="gv5yW4gFrfsYINOP_nPH-24" value="desconto INSS =&amp;nbsp; 0.10 * sb" style="rounded=0;whiteSpace=wrap;html=1;" vertex="1" parent="1">
          <mxGeometry x="470" y="350" width="160" height="60" as="geometry" />
        </mxCell>
        <mxCell id="gv5yW4gFrfsYINOP_nPH-27" style="edgeStyle=orthogonalEdgeStyle;rounded=0;orthogonalLoop=1;jettySize=auto;html=1;exitX=0.5;exitY=1;exitDx=0;exitDy=0;" edge="1" parent="1" source="gv5yW4gFrfsYINOP_nPH-25" target="gv5yW4gFrfsYINOP_nPH-28">
          <mxGeometry relative="1" as="geometry">
            <mxPoint x="550" y="520" as="targetPoint" />
          </mxGeometry>
        </mxCell>
        <mxCell id="gv5yW4gFrfsYINOP_nPH-25" value="desconto IR .0.20 * sb" style="rounded=0;whiteSpace=wrap;html=1;" vertex="1" parent="1">
          <mxGeometry x="470" y="430" width="160" height="60" as="geometry" />
        </mxCell>
        <mxCell id="gv5yW4gFrfsYINOP_nPH-30" value="" style="edgeStyle=orthogonalEdgeStyle;rounded=0;orthogonalLoop=1;jettySize=auto;html=1;" edge="1" parent="1" source="gv5yW4gFrfsYINOP_nPH-28" target="gv5yW4gFrfsYINOP_nPH-29">
          <mxGeometry relative="1" as="geometry" />
        </mxCell>
        <mxCell id="gv5yW4gFrfsYINOP_nPH-28" value="soma = (sb - INSS - IR)&amp;nbsp; + valor benefício" style="rounded=0;whiteSpace=wrap;html=1;" vertex="1" parent="1">
          <mxGeometry x="430" y="510" width="240" height="60" as="geometry" />
        </mxCell>
        <mxCell id="gv5yW4gFrfsYINOP_nPH-36" style="edgeStyle=orthogonalEdgeStyle;rounded=0;orthogonalLoop=1;jettySize=auto;html=1;exitX=0.5;exitY=1;exitDx=0;exitDy=0;entryX=1;entryY=0.5;entryDx=0;entryDy=0;" edge="1" parent="1" source="gv5yW4gFrfsYINOP_nPH-29" target="gv5yW4gFrfsYINOP_nPH-34">
          <mxGeometry relative="1" as="geometry" />
        </mxCell>
        <mxCell id="gv5yW4gFrfsYINOP_nPH-29" value="exibir sálario líquido" style="whiteSpace=wrap;html=1;rounded=0;" vertex="1" parent="1">
          <mxGeometry x="490" y="610" width="120" height="60" as="geometry" />
        </mxCell>
        <mxCell id="gv5yW4gFrfsYINOP_nPH-35" style="edgeStyle=orthogonalEdgeStyle;rounded=0;orthogonalLoop=1;jettySize=auto;html=1;exitX=0.5;exitY=1;exitDx=0;exitDy=0;entryX=0;entryY=0.5;entryDx=0;entryDy=0;" edge="1" parent="1" source="gv5yW4gFrfsYINOP_nPH-32" target="gv5yW4gFrfsYINOP_nPH-34">
          <mxGeometry relative="1" as="geometry" />
        </mxCell>
        <mxCell id="gv5yW4gFrfsYINOP_nPH-32" value="exibir sálario líquido" style="whiteSpace=wrap;html=1;rounded=0;" vertex="1" parent="1">
          <mxGeometry x="40" y="610" width="120" height="60" as="geometry" />
        </mxCell>
        <mxCell id="gv5yW4gFrfsYINOP_nPH-34" value="" style="ellipse;whiteSpace=wrap;html=1;aspect=fixed;fillColor=#a20025;fontColor=#ffffff;strokeColor=#6F0000;" vertex="1" parent="1">
          <mxGeometry x="300" y="680" width="50" height="50" as="geometry" />
        </mxCell>
      </root>
    </mxGraphModel>
  </diagram>
  <diagram id="sNQ7SZYo0-VKzJud7H-R" name="Diagrama Filhos">
    <mxGraphModel dx="1538" dy="2107" grid="1" gridSize="10" guides="1" tooltips="1" connect="1" arrows="1" fold="1" page="1" pageScale="1" pageWidth="827" pageHeight="1169" math="0" shadow="0">
      <root>
        <mxCell id="0" />
        <mxCell id="1" parent="0" />
        <mxCell id="_mAwIMBno5XMa43GV6Zx-2" style="edgeStyle=orthogonalEdgeStyle;rounded=0;orthogonalLoop=1;jettySize=auto;html=1;exitX=0.5;exitY=1;exitDx=0;exitDy=0;" edge="1" parent="1" source="_mAwIMBno5XMa43GV6Zx-1" target="_mAwIMBno5XMa43GV6Zx-3">
          <mxGeometry relative="1" as="geometry">
            <mxPoint x="395" y="170" as="targetPoint" />
          </mxGeometry>
        </mxCell>
        <mxCell id="_mAwIMBno5XMa43GV6Zx-1" value="" style="ellipse;whiteSpace=wrap;html=1;aspect=fixed;fillColor=#60a917;fontColor=#ffffff;strokeColor=#2D7600;" vertex="1" parent="1">
          <mxGeometry x="370" y="-60" width="50" height="50" as="geometry" />
        </mxCell>
        <mxCell id="_mAwIMBno5XMa43GV6Zx-7" style="edgeStyle=orthogonalEdgeStyle;rounded=0;orthogonalLoop=1;jettySize=auto;html=1;exitX=0.5;exitY=1;exitDx=0;exitDy=0;" edge="1" parent="1" source="_mAwIMBno5XMa43GV6Zx-51" target="_mAwIMBno5XMa43GV6Zx-6">
          <mxGeometry relative="1" as="geometry" />
        </mxCell>
        <mxCell id="_mAwIMBno5XMa43GV6Zx-3" value="Quantos filhos você tem?" style="rounded=0;whiteSpace=wrap;html=1;" vertex="1" parent="1">
          <mxGeometry x="277.5" y="20" width="235" height="40" as="geometry" />
        </mxCell>
        <mxCell id="_mAwIMBno5XMa43GV6Zx-8" style="edgeStyle=orthogonalEdgeStyle;rounded=0;orthogonalLoop=1;jettySize=auto;html=1;exitX=0.5;exitY=1;exitDx=0;exitDy=0;" edge="1" parent="1" source="_mAwIMBno5XMa43GV6Zx-6" target="_mAwIMBno5XMa43GV6Zx-9">
          <mxGeometry relative="1" as="geometry">
            <mxPoint x="395" y="280" as="targetPoint" />
          </mxGeometry>
        </mxCell>
        <mxCell id="_mAwIMBno5XMa43GV6Zx-6" value="Quantos filhos menores de 18 anos?" style="rounded=0;whiteSpace=wrap;html=1;" vertex="1" parent="1">
          <mxGeometry x="277.5" y="200" width="235" height="40" as="geometry" />
        </mxCell>
        <mxCell id="_mAwIMBno5XMa43GV6Zx-10" style="edgeStyle=orthogonalEdgeStyle;rounded=0;orthogonalLoop=1;jettySize=auto;html=1;exitX=1;exitY=0.5;exitDx=0;exitDy=0;" edge="1" parent="1" source="_mAwIMBno5XMa43GV6Zx-9" target="_mAwIMBno5XMa43GV6Zx-15">
          <mxGeometry relative="1" as="geometry">
            <mxPoint x="550" y="320" as="targetPoint" />
          </mxGeometry>
        </mxCell>
        <mxCell id="_mAwIMBno5XMa43GV6Zx-11" style="edgeStyle=orthogonalEdgeStyle;rounded=0;orthogonalLoop=1;jettySize=auto;html=1;exitX=0;exitY=0.5;exitDx=0;exitDy=0;" edge="1" parent="1" source="_mAwIMBno5XMa43GV6Zx-9" target="_mAwIMBno5XMa43GV6Zx-12">
          <mxGeometry relative="1" as="geometry">
            <mxPoint x="230" y="380" as="targetPoint" />
          </mxGeometry>
        </mxCell>
        <mxCell id="_mAwIMBno5XMa43GV6Zx-9" value="filhos &amp;lt; 18" style="rhombus;whiteSpace=wrap;html=1;" vertex="1" parent="1">
          <mxGeometry x="327.5" y="300" width="135" height="80" as="geometry" />
        </mxCell>
        <mxCell id="_mAwIMBno5XMa43GV6Zx-60" style="edgeStyle=orthogonalEdgeStyle;rounded=0;orthogonalLoop=1;jettySize=auto;html=1;exitX=0.5;exitY=1;exitDx=0;exitDy=0;entryX=0;entryY=0.5;entryDx=0;entryDy=0;" edge="1" parent="1" source="_mAwIMBno5XMa43GV6Zx-12" target="_mAwIMBno5XMa43GV6Zx-50">
          <mxGeometry relative="1" as="geometry" />
        </mxCell>
        <mxCell id="_mAwIMBno5XMa43GV6Zx-12" value="Sem bolsa" style="rounded=0;whiteSpace=wrap;html=1;" vertex="1" parent="1">
          <mxGeometry x="190" y="420" width="120" height="60" as="geometry" />
        </mxCell>
        <mxCell id="_mAwIMBno5XMa43GV6Zx-13" value="NÃO" style="text;html=1;align=center;verticalAlign=middle;resizable=0;points=[];autosize=1;strokeColor=none;fillColor=none;" vertex="1" parent="1">
          <mxGeometry x="260" y="300" width="50" height="30" as="geometry" />
        </mxCell>
        <mxCell id="_mAwIMBno5XMa43GV6Zx-14" value="SIM" style="text;html=1;align=center;verticalAlign=middle;resizable=0;points=[];autosize=1;strokeColor=none;fillColor=none;" vertex="1" parent="1">
          <mxGeometry x="462.5" y="300" width="40" height="30" as="geometry" />
        </mxCell>
        <mxCell id="_mAwIMBno5XMa43GV6Zx-19" style="edgeStyle=orthogonalEdgeStyle;rounded=0;orthogonalLoop=1;jettySize=auto;html=1;exitX=1;exitY=0.5;exitDx=0;exitDy=0;" edge="1" parent="1" source="_mAwIMBno5XMa43GV6Zx-15" target="_mAwIMBno5XMa43GV6Zx-18">
          <mxGeometry relative="1" as="geometry" />
        </mxCell>
        <mxCell id="_mAwIMBno5XMa43GV6Zx-15" value="nome do filho" style="rounded=0;whiteSpace=wrap;html=1;" vertex="1" parent="1">
          <mxGeometry x="530" y="310" width="120" height="60" as="geometry" />
        </mxCell>
        <mxCell id="_mAwIMBno5XMa43GV6Zx-28" style="edgeStyle=orthogonalEdgeStyle;rounded=0;orthogonalLoop=1;jettySize=auto;html=1;exitX=0.5;exitY=1;exitDx=0;exitDy=0;" edge="1" parent="1" source="_mAwIMBno5XMa43GV6Zx-18" target="_mAwIMBno5XMa43GV6Zx-27">
          <mxGeometry relative="1" as="geometry" />
        </mxCell>
        <mxCell id="_mAwIMBno5XMa43GV6Zx-18" value="idade do filho" style="rounded=0;whiteSpace=wrap;html=1;" vertex="1" parent="1">
          <mxGeometry x="670" y="310" width="120" height="60" as="geometry" />
        </mxCell>
        <mxCell id="_mAwIMBno5XMa43GV6Zx-30" style="edgeStyle=orthogonalEdgeStyle;rounded=0;orthogonalLoop=1;jettySize=auto;html=1;exitX=0.5;exitY=1;exitDx=0;exitDy=0;" edge="1" parent="1" source="_mAwIMBno5XMa43GV6Zx-24" target="_mAwIMBno5XMa43GV6Zx-31">
          <mxGeometry relative="1" as="geometry">
            <mxPoint x="730" y="580" as="targetPoint" />
          </mxGeometry>
        </mxCell>
        <mxCell id="_mAwIMBno5XMa43GV6Zx-39" style="edgeStyle=orthogonalEdgeStyle;rounded=0;orthogonalLoop=1;jettySize=auto;html=1;exitX=1;exitY=0.5;exitDx=0;exitDy=0;" edge="1" parent="1" source="_mAwIMBno5XMa43GV6Zx-24" target="_mAwIMBno5XMa43GV6Zx-38">
          <mxGeometry relative="1" as="geometry" />
        </mxCell>
        <mxCell id="_mAwIMBno5XMa43GV6Zx-24" value="idade &amp;lt; 3" style="rhombus;whiteSpace=wrap;html=1;" vertex="1" parent="1">
          <mxGeometry x="685" y="470" width="90" height="80" as="geometry" />
        </mxCell>
        <mxCell id="_mAwIMBno5XMa43GV6Zx-49" style="edgeStyle=orthogonalEdgeStyle;rounded=0;orthogonalLoop=1;jettySize=auto;html=1;exitX=1;exitY=0.5;exitDx=0;exitDy=0;entryX=0.5;entryY=0;entryDx=0;entryDy=0;" edge="1" parent="1" source="_mAwIMBno5XMa43GV6Zx-26" target="_mAwIMBno5XMa43GV6Zx-9">
          <mxGeometry relative="1" as="geometry">
            <Array as="points">
              <mxPoint x="1170" y="510" />
              <mxPoint x="1170" y="280" />
              <mxPoint x="395" y="280" />
            </Array>
          </mxGeometry>
        </mxCell>
        <mxCell id="_mAwIMBno5XMa43GV6Zx-26" value="filho =&amp;nbsp; filho + 1" style="rounded=0;whiteSpace=wrap;html=1;" vertex="1" parent="1">
          <mxGeometry x="960" y="480" width="120" height="60" as="geometry" />
        </mxCell>
        <mxCell id="_mAwIMBno5XMa43GV6Zx-29" style="edgeStyle=orthogonalEdgeStyle;rounded=0;orthogonalLoop=1;jettySize=auto;html=1;exitX=0.5;exitY=1;exitDx=0;exitDy=0;" edge="1" parent="1" source="_mAwIMBno5XMa43GV6Zx-27" target="_mAwIMBno5XMa43GV6Zx-24">
          <mxGeometry relative="1" as="geometry" />
        </mxCell>
        <mxCell id="_mAwIMBno5XMa43GV6Zx-27" value="total = 0&amp;nbsp;" style="rounded=0;whiteSpace=wrap;html=1;" vertex="1" parent="1">
          <mxGeometry x="670" y="390" width="120" height="60" as="geometry" />
        </mxCell>
        <mxCell id="_mAwIMBno5XMa43GV6Zx-34" style="edgeStyle=orthogonalEdgeStyle;rounded=0;orthogonalLoop=1;jettySize=auto;html=1;exitX=0.5;exitY=1;exitDx=0;exitDy=0;" edge="1" parent="1" source="_mAwIMBno5XMa43GV6Zx-31" target="_mAwIMBno5XMa43GV6Zx-35">
          <mxGeometry relative="1" as="geometry">
            <mxPoint x="730" y="680" as="targetPoint" />
          </mxGeometry>
        </mxCell>
        <mxCell id="_mAwIMBno5XMa43GV6Zx-42" style="edgeStyle=orthogonalEdgeStyle;rounded=0;orthogonalLoop=1;jettySize=auto;html=1;exitX=1;exitY=0.5;exitDx=0;exitDy=0;" edge="1" parent="1" source="_mAwIMBno5XMa43GV6Zx-31" target="_mAwIMBno5XMa43GV6Zx-41">
          <mxGeometry relative="1" as="geometry" />
        </mxCell>
        <mxCell id="_mAwIMBno5XMa43GV6Zx-31" value="idade &amp;gt;= 3 e &amp;lt;= 16" style="rhombus;whiteSpace=wrap;html=1;" vertex="1" parent="1">
          <mxGeometry x="650" y="570" width="160" height="80" as="geometry" />
        </mxCell>
        <mxCell id="_mAwIMBno5XMa43GV6Zx-48" style="edgeStyle=orthogonalEdgeStyle;rounded=0;orthogonalLoop=1;jettySize=auto;html=1;exitX=1;exitY=0.5;exitDx=0;exitDy=0;entryX=0.5;entryY=0;entryDx=0;entryDy=0;" edge="1" parent="1" source="_mAwIMBno5XMa43GV6Zx-33" target="_mAwIMBno5XMa43GV6Zx-9">
          <mxGeometry relative="1" as="geometry">
            <Array as="points">
              <mxPoint x="1170" y="610" />
              <mxPoint x="1170" y="280" />
              <mxPoint x="395" y="280" />
            </Array>
          </mxGeometry>
        </mxCell>
        <mxCell id="_mAwIMBno5XMa43GV6Zx-33" value="filho = filho + 1" style="rounded=0;whiteSpace=wrap;html=1;" vertex="1" parent="1">
          <mxGeometry x="980" y="580" width="120" height="60" as="geometry" />
        </mxCell>
        <mxCell id="_mAwIMBno5XMa43GV6Zx-44" style="edgeStyle=orthogonalEdgeStyle;rounded=0;orthogonalLoop=1;jettySize=auto;html=1;exitX=1;exitY=0.5;exitDx=0;exitDy=0;" edge="1" parent="1" source="_mAwIMBno5XMa43GV6Zx-35" target="_mAwIMBno5XMa43GV6Zx-45">
          <mxGeometry relative="1" as="geometry">
            <mxPoint x="820" y="710" as="targetPoint" />
          </mxGeometry>
        </mxCell>
        <mxCell id="_mAwIMBno5XMa43GV6Zx-35" value="idade &amp;gt; 16 e &amp;lt; 18" style="rhombus;whiteSpace=wrap;html=1;" vertex="1" parent="1">
          <mxGeometry x="665" y="670" width="130" height="80" as="geometry" />
        </mxCell>
        <mxCell id="_mAwIMBno5XMa43GV6Zx-47" style="edgeStyle=orthogonalEdgeStyle;rounded=0;orthogonalLoop=1;jettySize=auto;html=1;exitX=1;exitY=0.5;exitDx=0;exitDy=0;entryX=0.5;entryY=0;entryDx=0;entryDy=0;" edge="1" parent="1" source="_mAwIMBno5XMa43GV6Zx-37">
          <mxGeometry relative="1" as="geometry">
            <mxPoint x="1100" y="759.91" as="sourcePoint" />
            <mxPoint x="395" y="349.90999999999997" as="targetPoint" />
            <Array as="points">
              <mxPoint x="1100" y="720" />
              <mxPoint x="1170" y="720" />
              <mxPoint x="1170" y="280" />
              <mxPoint x="395" y="280" />
            </Array>
          </mxGeometry>
        </mxCell>
        <mxCell id="_mAwIMBno5XMa43GV6Zx-37" value="filho =&amp;nbsp; filho + 1" style="rounded=0;whiteSpace=wrap;html=1;" vertex="1" parent="1">
          <mxGeometry x="980" y="680" width="120" height="60" as="geometry" />
        </mxCell>
        <mxCell id="_mAwIMBno5XMa43GV6Zx-40" style="edgeStyle=orthogonalEdgeStyle;rounded=0;orthogonalLoop=1;jettySize=auto;html=1;exitX=1;exitY=0.5;exitDx=0;exitDy=0;" edge="1" parent="1" source="_mAwIMBno5XMa43GV6Zx-38" target="_mAwIMBno5XMa43GV6Zx-26">
          <mxGeometry relative="1" as="geometry" />
        </mxCell>
        <mxCell id="_mAwIMBno5XMa43GV6Zx-38" value="total = total + 25" style="rounded=0;whiteSpace=wrap;html=1;" vertex="1" parent="1">
          <mxGeometry x="810" y="480" width="120" height="60" as="geometry" />
        </mxCell>
        <mxCell id="_mAwIMBno5XMa43GV6Zx-43" style="edgeStyle=orthogonalEdgeStyle;rounded=0;orthogonalLoop=1;jettySize=auto;html=1;exitX=1;exitY=0.5;exitDx=0;exitDy=0;" edge="1" parent="1" source="_mAwIMBno5XMa43GV6Zx-41" target="_mAwIMBno5XMa43GV6Zx-33">
          <mxGeometry relative="1" as="geometry" />
        </mxCell>
        <mxCell id="_mAwIMBno5XMa43GV6Zx-41" value="total = total + 20" style="rounded=0;whiteSpace=wrap;html=1;" vertex="1" parent="1">
          <mxGeometry x="827" y="580" width="120" height="60" as="geometry" />
        </mxCell>
        <mxCell id="_mAwIMBno5XMa43GV6Zx-46" style="edgeStyle=orthogonalEdgeStyle;rounded=0;orthogonalLoop=1;jettySize=auto;html=1;exitX=1;exitY=0.5;exitDx=0;exitDy=0;" edge="1" parent="1" source="_mAwIMBno5XMa43GV6Zx-45" target="_mAwIMBno5XMa43GV6Zx-37">
          <mxGeometry relative="1" as="geometry" />
        </mxCell>
        <mxCell id="_mAwIMBno5XMa43GV6Zx-45" value="total = total + 15" style="rounded=0;whiteSpace=wrap;html=1;" vertex="1" parent="1">
          <mxGeometry x="827" y="680" width="120" height="60" as="geometry" />
        </mxCell>
        <mxCell id="_mAwIMBno5XMa43GV6Zx-50" value="" style="ellipse;whiteSpace=wrap;html=1;aspect=fixed;fillColor=#a20025;fontColor=#ffffff;strokeColor=#6F0000;" vertex="1" parent="1">
          <mxGeometry x="400" y="640" width="50" height="50" as="geometry" />
        </mxCell>
        <mxCell id="_mAwIMBno5XMa43GV6Zx-52" style="edgeStyle=orthogonalEdgeStyle;rounded=0;orthogonalLoop=1;jettySize=auto;html=1;exitX=1;exitY=0.5;exitDx=0;exitDy=0;" edge="1" parent="1" source="_mAwIMBno5XMa43GV6Zx-51" target="_mAwIMBno5XMa43GV6Zx-53">
          <mxGeometry relative="1" as="geometry">
            <mxPoint x="490" y="109.36363636363603" as="targetPoint" />
          </mxGeometry>
        </mxCell>
        <mxCell id="_mAwIMBno5XMa43GV6Zx-53" value="Sem bolsa, nem filho se tem" style="rounded=0;whiteSpace=wrap;html=1;" vertex="1" parent="1">
          <mxGeometry x="500" y="90" width="160" height="60" as="geometry" />
        </mxCell>
        <mxCell id="_mAwIMBno5XMa43GV6Zx-54" value="" style="edgeStyle=orthogonalEdgeStyle;rounded=0;orthogonalLoop=1;jettySize=auto;html=1;exitX=0.5;exitY=1;exitDx=0;exitDy=0;" edge="1" parent="1" source="_mAwIMBno5XMa43GV6Zx-3" target="_mAwIMBno5XMa43GV6Zx-51">
          <mxGeometry relative="1" as="geometry">
            <mxPoint x="395" y="50" as="sourcePoint" />
            <mxPoint x="395" y="200" as="targetPoint" />
          </mxGeometry>
        </mxCell>
        <mxCell id="_mAwIMBno5XMa43GV6Zx-51" value="filhos &amp;lt;= 0" style="rhombus;whiteSpace=wrap;html=1;" vertex="1" parent="1">
          <mxGeometry x="355" y="80" width="80" height="80" as="geometry" />
        </mxCell>
        <mxCell id="_mAwIMBno5XMa43GV6Zx-55" value="sim" style="text;html=1;align=center;verticalAlign=middle;resizable=0;points=[];autosize=1;strokeColor=none;fillColor=none;" vertex="1" parent="1">
          <mxGeometry x="430" y="78" width="40" height="30" as="geometry" />
        </mxCell>
        <mxCell id="_mAwIMBno5XMa43GV6Zx-56" value="não" style="text;html=1;align=center;verticalAlign=middle;resizable=0;points=[];autosize=1;strokeColor=none;fillColor=none;" vertex="1" parent="1">
          <mxGeometry x="330" y="150" width="40" height="30" as="geometry" />
        </mxCell>
      </root>
    </mxGraphModel>
  </diagram>
</mxfile>
